<svg xmlns="http://www.w3.org/2000/svg" width="1200" height="630" viewBox="0 0 1200 630" role="img" aria-label="زاد الخير — كلام الباري يجمعنا">
  <defs>
    <linearGradient id="card-bg" x1="80" y1="30" x2="1110" y2="620" gradientUnits="userSpaceOnUse"><stop stop-color="#123F38"/><stop offset=".55" stop-color="#082D29"/><stop offset="1" stop-color="#041A18"/></linearGradient>
    <linearGradient id="card-gold" x1="780" y1="72" x2="1070" y2="550" gradientUnits="userSpaceOnUse"><stop stop-color="#F2DA99"/><stop offset=".52" stop-color="#D4A950"/><stop offset="1" stop-color="#9B6B27"/></linearGradient>
    <linearGradient id="card-paper" x1="784" y1="322" x2="1052" y2="492" gradientUnits="userSpaceOnUse"><stop stop-color="#FFFDF5"/><stop offset="1" stop-color="#EDE2C9"/></linearGradient>
    <pattern id="card-pattern" width="84" height="84" patternUnits="userSpaceOnUse"><path d="M42 5 79 42 42 79 5 42Z" fill="none" stroke="#E4C980" stroke-opacity=".065" stroke-width="1.5"/><path d="M16 16h52v52H16Z" fill="none" stroke="#E4C980" stroke-opacity=".04"/></pattern>
    <filter id="card-shadow" x="-40%" y="-40%" width="180%" height="210%"><feDropShadow dx="0" dy="18" stdDeviation="14" flood-color="#000" flood-opacity=".3"/></filter>
  </defs>
  <rect width="1200" height="630" fill="url(#card-bg)"/><rect width="1200" height="630" fill="url(#card-pattern)"/><circle cx="88" cy="84" r="240" fill="#E4C980" fill-opacity=".035"/><circle cx="1110" cy="610" r="340" fill="#2B8B72" fill-opacity=".055"/><path d="M80 104h430" stroke="#E4C980" stroke-opacity=".34" stroke-width="2"/><path d="M80 526h430" stroke="#E4C980" stroke-opacity=".18" stroke-width="2"/>
  <g direction="rtl" font-family="DejaVu Sans, sans-serif"><text x="640" y="285" fill="#FFF9EA" font-size="90" font-weight="700">زاد الخير</text><text x="640" y="364" fill="#E4C980" font-size="34">كلام الباري يجمعنا</text></g>
  <g><path d="M738 533V266c0-139 76-238 198-302 122 64 198 163 198 302v267" fill="#071E1B" fill-opacity=".26" stroke="url(#card-gold)" stroke-width="10" stroke-linecap="round"/><path d="M768 519V274c0-111 61-195 168-254 107 59 168 143 168 254v245" fill="none" stroke="#E4C980" stroke-opacity=".2" stroke-width="3"/><path d="M936 22v-42" stroke="#E7C979" stroke-width="8" stroke-linecap="round"/><g filter="url(#card-shadow)"><path d="M936 370c-47-40-103-57-178-54v143c73-3 133 15 178 58Z" fill="url(#card-paper)" stroke="#D3A951" stroke-width="7" stroke-linejoin="round"/><path d="M936 370c47-40 103-57 178-54v143c-73-3-133 15-178 58Z" fill="url(#card-paper)" stroke="#D3A951" stroke-width="7" stroke-linejoin="round"/><path d="M936 370v147" stroke="#B6812F" stroke-width="7" stroke-linecap="round"/><path d="M807 363c36 2 66 11 91 26M1065 363c-36 2-66 11-91 26" fill="none" stroke="#A9803B" stroke-opacity=".46" stroke-width="5" stroke-linecap="round"/></g><path d="M720 541h432" stroke="#E4C980" stroke-opacity=".6" stroke-width="7" stroke-linecap="round"/></g>
</svg>
